<svg width="110" height="160" viewBox="0 0 110 160" fill="none" xmlns="http://www.w3.org/2000/svg">
<path d="M58.601 3.99998H65.9436C88.0661 3.99998 106 21.9338 106 44.0564V51.3671C106 70.0702 93.8687 86.6123 76.0303 92.2334C59.3168 97.5 46.4931 111.002 42.0935 127.964L36.0305 151.34C35.3187 154.084 32.8423 156 30.0075 156C26.8847 156 24.2456 153.685 23.8385 150.589L11.6067 57.5792C7.87341 29.1914 29.9688 3.99998 58.601 3.99998Z" stroke="white" stroke-width="8"/>
<path d="M79.1058 51.1396C79.1058 62.7376 69.7038 72.1396 58.1058 72.1396C46.5079 72.1396 37.1058 62.7376 37.1058 51.1396C37.1058 39.5417 46.5079 30.1396 58.1058 30.1396C69.7038 30.1396 79.1058 39.5417 79.1058 51.1396Z" stroke="white" stroke-width="8"/>
</svg>
